<svg xmlns="http://www.w3.org/2000/svg" viewBox="0 0 90 33">
    <path fill="#fff" d="M72.59 8.417c.594-1.3 1.238-2.207 1.935-2.723 1.108-.823 2.397-1.235 3.867-1.235
          1.354 0 2.543.367 3.568 1.101 1.025.733 1.712 1.686 2.06 2.857H72.59zm13.61-5.24C84.13
          1.058 81.44 0 78.13 0c-3.113 0-5.703 1.06-7.77 3.176-2.065 2.117-3.098 4.778-3.098 7.982
          0 3.128 1.036 5.732 3.108 7.81 2.073 2.078 4.756 3.118 8.05 3.118 2.125 0 3.959-.377
          5.503-1.13 1.545-.753 2.87-1.914 3.978-3.484l-4.441-2.085c-1.416 1.377-3.108 2.065-5.078
          2.065-1.647 0-3.002-.44-4.063-1.322-1.062-.882-1.715-2.069-1.96-3.563h16.93l.02-1.004c0
          -3.474-1.035-6.27-3.108-8.387zM.856 29.346l1.21-2.929 1.21 2.929H.856zm1.077-3.186L0
          30.8h.257l.514-1.246H3.36l.515 1.246h.256L2.2 26.16h-.265zM8.652 26.96c.473 0 .89.3
          1.085.675l.85-.418c-.329-.584-.919-1.134-1.935-1.134-1.398 0-2.477.967-2.477 2.4 0 1.426
          1.08 2.4 2.477 2.4 1.016 0 1.606-.564 1.934-1.14l-.849-.41c-.195.374-.612.674-1.085.674-.849
          0-1.46-.648-1.46-1.524 0-.877.611-1.523 1.46-1.523M12.645 30.097c-.55 0-.855-.452-.855-.98
          0-.522.305-.974.855-.974.557 0 .862.452.862.974 0 .528-.305.98-.862.98m0-2.74c-1.106 0-1.773.806-1.773
          1.76 0 .953.667 1.766 1.773 1.766 1.112 0 1.78-.813 1.78-1.766 0-.954-.668-1.76-1.78-1.76M17.325
          29.61a1.003 1.003 0 0 1-.759.384c-.508 0-.855-.35-.855-.926 0-.577.347-.926.855-.926.285 0
          .606.16.76.376v1.092zm0-1.738a1.287 1.287 0 0 0-1.044-.515c-.848 0-1.48.612-1.48 1.71 0 1.12.646
          1.705 1.48 1.705.418 0 .78-.188 1.044-.521v.327c0 .68-.508.862-.933.862-.417 0-.778-.118-1.049-.41l
          -.397.633c.424.368.877.5 1.446.5.83 0 1.817-.313 1.817-1.585V27.44h-.884v.432zM21.074 27.357c-.542
          0-.96.265-1.176.515v-.432h-.883v3.36h.883v-2.267a.983.983 0 0 1 .766-.391c.376 0
          .62.16.62.627v2.03h.89v-2.371c0-.654-.356-1.071-1.1-1.071M22.973 30.8h.883v-3.36h-.883zM23.411
          26.029a.52.52 0 0 0-.52.52c0 .293.235.53.52.53a.528.528 0 0 0 .528-.53.522.522 0 0 0-.528-.52M27.237
          28.073v-.634h-2.72v.773h1.516l-1.517 1.927v.662h2.748v-.773h-1.572zM29.942 29.993c-.146.194-.425.292-.71.292-.348
          0-.633-.182-.633-.5 0-.32.285-.509.634-.509.284 0 .563.105.709.3v.417zm-.584-2.637c-.529
          0-1.058.16-1.468.53l.348.618a1.41 1.41 0 0 1 .968-.397c.445 0 .736.223.736.564v.425c-.224-.265-.611-.412-1.064-.412-.537
          0-1.163.293-1.163 1.086 0 .751.627 1.113 1.163 1.113.438 0 .834-.16 1.064-.439v.356h.89v-2.17c0-.967-.704
          -1.274-1.474-1.274zM33.691 27.357c-.543 0-.96.265-1.175.515v-.432h-.884v3.36h.884v-2.267a.98.98 0 0 1
          .765-.391c.376 0 .619.16.619.627v2.03h.89v-2.371c0-.654-.355-1.071-1.099-1.071M36.96 30.097c-.195
          0-.306-.16-.306-.376v-1.509h.682v-.771h-.682v-.919h-.883v.919h-.557v.771h.557v1.746c0 .605.327.925.946.925.368
          0 .605-.097.737-.216l-.187-.674c-.049.055-.175.104-.307.104M41.809 29.912h-.842v-2.899h.849c.946 0 1.447.632
          1.447 1.446 0 .793-.536 1.453-1.454 1.453m0-3.77h-1.83v4.64h1.837c1.447 0 2.455-.918 2.455-2.323 0-1.39-1.008
          -2.317-2.462-2.317M44.883 30.783h.884v-3.36h-.884zM45.321 26.011a.52.52 0 0 0-.522.521c0 .292.237.53.522.53a.53.53
          0 0 0 .528-.53.522.522 0 0 0-.528-.521M48.882 29.593a1.001 1.001 0 0 1-.758.383c-.508 0-.856-.349-.856-.926
          0-.577.348-.925.856-.925.285 0 .606.16.758.375v1.093zm0-1.739a1.286 1.286 0 0 0-1.043-.515c-.85 0-1.481.612-1.481
          1.711 0 1.12.646 1.704 1.48 1.704.418 0 .78-.187 1.044-.52v.326c0 .681-.508.862-.933.862-.417
          0-.778-.118-1.05-.41l-.396.633c.425.368.877.5 1.446.5.829 0 1.817-.313 1.817-1.585v-3.138h-.884v.432zM50.572
          30.783h.884v-3.36h-.884zM51.01 26.011a.52.52 0 0 0-.521.521c0 .292.237.53.522.53a.53.53 0 0 0 .528-.53.522.522
          0 0 0-.528-.521M53.633 30.08c-.195 0-.307-.16-.307-.376v-1.51h.682v-.77h-.682v-.92h-.882v.92h-.558v.77h.558v1.746c0
          .605.326.925.945.925.369 0 .605-.097.737-.216l-.188-.674c-.048.056-.173.104-.305.104M56.56 29.976c-.145.194-.423.292-.708.292-.348
          0-.633-.181-.633-.501s.285-.508.633-.508c.285 0 .563.105.709.299v.418zm-.583-2.637c-.53 0-1.057.16-1.468.53l.348.618c.278
          -.257.612-.397.967-.397.445 0 .737.223.737.564v.425c-.223-.265-.611-.412-1.063-.412-.537 0-1.163.293-1.163 1.086 0 .75.626
          1.113 1.163 1.113.437 0 .834-.16 1.063-.438v.355h.89v-2.171c0-.966-.703-1.273-1.474-1.273zM58.251 30.783h.883v-4.64h-.883zM63.947
          29.912h-1.28v-1.057h1.28c.382 0 .591.237.591.53 0 .333-.223.527-.59.527zm-1.28-2.9h1.238c.334 0 .542.202.542.487 0
          .3-.208.487-.542.487h-1.238v-.974zm1.99 1.378c.437-.09.8-.488.8-1.065 0-.619-.452-1.183-1.336-1.183H61.68v4.64h2.518c.891
          0 1.35-.557 1.35-1.259 0-.577-.39-1.057-.89-1.133zM68.468 29.698a.99.99 0 0 1-.765.382c-.376 0-.62-.153-.62-.62v
          -2.037h-.882v2.386c0 .654.347 1.057 1.084 1.057.55 0 .954-.257 1.183-.508v.425h.884v-3.36h-.884v2.275zM70.833
          28.363c0-.188.208-.328.528-.328.41 0 .793.182.995.39l.355-.626a2.143 2.143 0 0 0-1.35-.46c-.89 0-1.378.495-1.378
          1.058 0 1.32 1.991.869 1.991 1.419 0 .209-.182.355-.564.355-.417 0-.91-.23-1.162-.466l-.382.639c.355.328.918.523 1.502.523.933
          0 1.461-.453 1.461-1.071 0-1.357-1.996-.94-1.996-1.433M73.406 30.783h.884v-3.36h-.884zM73.845 26.011a.52.52 0 0 0-.521.521c0
          .292.236.53.52.53a.53.53 0 0 0 .529-.53.522.522 0 0 0-.528-.521M77.154 27.34c-.542 0-.959.264-1.175.514v-.432h-.884v3.36h.884v-2.267a.98.98
          0 0 1 .765-.39c.376 0 .62.16.62.626v2.031h.89V28.41c0-.654-.355-1.07-1.1-1.07M80.577 27.34c1.009 0 1.683.75
          1.683 1.843v.208h-2.496c.06.41.396.752.966.752.285 0 .675-.12.89-.327l.397.584c-.333.307-.863.466-1.384.466-1.023
          0-1.795-.69-1.795-1.767 0-.973.724-1.76 1.739-1.76zm-.821 1.44h1.655c-.027-.32-.25-.717-.834-.717-.55 0-.786.382-.821.717zM83.506
          28.363c0-.188.208-.328.527-.328.41 0 .794.182.995.39l.355-.626a2.139 2.139 0 0 0-1.35-.46c-.89 0-1.377.495-1.377 1.058
          0 1.32 1.99.869 1.99 1.419 0 .209-.181.355-.564.355-.417 0-.91-.23-1.161-.466l-.383.639c.355.328.918.523 1.503.523.932
          0 1.46-.453 1.46-1.071 0-1.357-1.995-.94-1.995-1.433M86.754 28.363c0-.188.208-.328.527-.328.411 0 .794.182.995.39l.355-.626a2.139
          2.139 0 0 0-1.35-.46c-.889 0-1.377.495-1.377 1.058 0 1.32 1.99.869 1.99 1.419 0 .209-.181.355-.564.355-.417
          0-.911-.23-1.161-.466l-.383.639c.355.328.918.523 1.503.523.932 0 1.46-.453 1.46-1.071 0-1.357-1.995-.94-1.995-1.433M16.171
          21.729l3.083-4.926H9.627L19.923.356H4.395L1.337 5.238h9.003L0 21.728zM31.367 16.714c-3.054 0-5.27-2.385-5.27-5.67
          0-3.288 2.216-5.674 5.27-5.674 3.054 0 5.271 2.386 5.271 5.673 0 3.286-2.217 5.671-5.27 5.671m0-16.714c-6.14
          0-11.133 4.953-11.133 11.043 0 6.09 4.993 11.043 11.132 11.043 6.14 0 11.132-4.954 11.132-11.043C42.5 4.953
          37.506 0 31.367 0M65.21 21.729V9.749c0-6.104-3.462-9.75-9.26-9.75-1.853 0-3.571.582-4.833
          1.633l-.749.625V.356h-5.817v21.373h5.817V7.437l.116-.13c1.122-1.257 2.83-2.07 4.352-2.07
          2.895 0 4.557 2.084 4.557 5.717v10.775h5.817z"/>
</svg>
